<?xml version="1.0" encoding="UTF-8"?>
<svg xmlns="http://www.w3.org/2000/svg" version="1.1" viewBox="0 0 50 40">
  <defs>
    <style>
      .cls-1 {
        fill: #939598;
      }

      .cls-2 {
        fill: none;
        stroke: #d1d3d4;
        stroke-linecap: round;
        stroke-linejoin: round;
        stroke-width: 2px;
      }
    </style>
  </defs>
  <!-- Generator: Adobe Illustrator 28.6.0, SVG Export Plug-In . SVG Version: 1.2.0 Build 709)  -->
  <g>
    <g id="Layer_1">
      <rect class="cls-1" width="50" height="40"/>
      <g>
        <path class="cls-2" d="M12.09,31.35c-.65-.65-.91-1.61-.67-2.5l3.38-12.5c.24-.88.93-1.58,1.81-1.82l5.35-1.46c.43-.12.83-.35,1.15-.67l1.42-1.42,4.66-4.66,9.47,9.47-6.09,6.09c-.32.32-.55.71-.67,1.15l-1.46,5.35c-.24.88-.93,1.57-1.82,1.81l-12.5,3.38c-.89.24-1.85-.01-2.5-.67l-1.56-1.56Z"/>
        <line class="cls-2" x1="24.53" y1="10.99" x2="34.01" y2="20.47"/>
        <line class="cls-2" x1="19.92" y1="5.02" x2="19.92" y2="9.75"/>
        <line class="cls-2" x1="22.29" y1="7.38" x2="17.56" y2="7.38"/>
        <line class="cls-2" x1="20.07" y1="24.93" x2="12.87" y2="32.13"/>
        <circle class="cls-2" cx="20.07" cy="24.93" r="1"/>
      </g>
    </g>
  </g>
</svg>